<?xml version="1.0" standalone="no"?>
<!DOCTYPE svg PUBLIC "-//W3C//DTD SVG 20010904//EN"
 "http://www.w3.org/TR/2001/REC-SVG-20010904/DTD/svg10.dtd">
<svg version="1.0" xmlns="http://www.w3.org/2000/svg"
 width="612.000000pt" height="612.000000pt" viewBox="0 0 612.000000 612.000000"
 preserveAspectRatio="xMidYMid meet">

<g transform="translate(0.000000,612.000000) scale(0.100000,-0.100000)"
fill="#000000" stroke="none">
<path d="M4865 5012 c-93 -28 -164 -71 -235 -142 -164 -165 -202 -410 -95
-620 37 -72 460 -604 476 -598 11 5 296 352 384 469 115 152 145 231 145 380
0 227 -138 422 -355 501 -83 30 -237 35 -320 10z m268 -319 c69 -48 101 -103
105 -182 3 -58 0 -75 -22 -119 -89 -175 -346 -168 -421 12 -50 119 12 267 129
311 65 23 159 14 209 -22z"/>
<path d="M1760 4770 c-110 -18 -202 -87 -252 -187 -30 -61 -33 -76 -33 -158 0
-83 2 -95 34 -153 41 -75 94 -125 170 -160 80 -38 192 -37 273 0 75 35 141 98
175 167 25 49 28 67 28 151 0 85 -3 101 -29 150 -71 137 -219 214 -366 190z"/>
<path d="M1569 3966 c-78 -28 -140 -80 -174 -146 -18 -34 -28 -97 -101 -615
-59 -427 -63 -496 -28 -585 23 -60 70 -120 141 -182 32 -28 72 -62 88 -77 17
-14 95 -82 175 -150 80 -68 153 -131 162 -140 15 -14 22 -77 47 -417 17 -220
35 -413 41 -430 6 -16 26 -44 43 -63 123 -130 329 -74 371 101 5 23 -43 747
-59 881 -7 60 -44 142 -81 183 -16 17 -92 86 -169 152 -202 173 -200 171 -199
245 1 77 65 537 75 537 4 0 37 -38 73 -84 99 -127 87 -124 469 -137 343 -11
361 -10 418 38 42 36 59 74 59 133 0 56 -15 93 -52 127 -49 46 -80 51 -355 59
l-260 7 -72 91 c-39 50 -125 161 -191 246 -123 158 -179 210 -248 230 -50 14
-129 12 -173 -4z"/>
<path d="M792 3949 c-85 -42 -82 -32 -162 -599 -54 -386 -58 -435 -35 -484 32
-67 73 -84 274 -111 97 -14 131 -15 161 -6 50 15 89 47 106 86 15 36 134 864
134 932 0 52 -18 91 -60 126 -38 32 -37 32 -208 57 -174 24 -158 24 -210 -1z"/>
<path d="M2726 3718 c-9 -14 -17 -64 -21 -124 l-7 -101 57 -7 c32 -3 59 -5 61
-3 2 2 7 52 11 110 5 95 4 109 -12 127 -25 27 -71 26 -89 -2z"/>
<path d="M4746 3361 c-58 -17 -96 -48 -96 -78 0 -31 30 -71 57 -77 37 -8 182
28 204 51 30 30 33 66 9 96 -18 23 -29 27 -68 26 -26 -1 -73 -9 -106 -18z"/>
<path d="M4325 3252 c-67 -23 -81 -31 -89 -54 -13 -37 2 -78 35 -97 23 -13 34
-12 110 10 94 27 129 53 129 98 0 35 -40 71 -79 71 -14 0 -62 -13 -106 -28z"/>
<path d="M4003 3120 c-36 -14 -131 -88 -149 -115 -29 -44 7 -105 63 -105 25 0
52 14 107 54 40 30 76 65 79 76 15 58 -45 112 -100 90z"/>
<path d="M2670 2925 c0 -5 -20 -392 -45 -859 -25 -466 -45 -870 -45 -896 0
-57 18 -80 60 -80 45 0 57 29 64 155 12 211 86 1646 86 1668 0 20 -5 22 -60
22 -35 1 -60 -3 -60 -10z"/>
<path d="M3810 2777 c-29 -15 -45 -54 -36 -90 7 -31 109 -143 137 -152 45 -14
99 30 99 80 0 8 -22 40 -50 71 -27 31 -50 61 -50 65 0 9 -53 39 -67 39 -4 0
-19 -6 -33 -13z"/>
<path d="M4120 2480 c-12 -12 -20 -33 -20 -53 0 -28 10 -42 68 -94 95 -85 136
-93 168 -31 21 41 12 69 -40 118 -87 83 -136 100 -176 60z"/>
<path d="M1216 2373 c-41 -131 -109 -342 -222 -688 -115 -353 -125 -406 -91
-472 22 -42 74 -91 114 -109 81 -35 211 2 258 75 13 20 60 151 105 291 45 140
111 344 146 453 35 108 64 205 63 215 0 9 -43 53 -96 97 -53 44 -128 110 -168
148 -40 37 -75 67 -79 67 -3 0 -16 -35 -30 -77z"/>
<path d="M4342 2134 c-19 -8 -34 -23 -38 -38 -3 -13 -21 -48 -40 -77 -40 -62
-41 -77 -13 -113 16 -20 29 -26 59 -26 45 0 78 33 116 115 29 62 30 98 3 124
-29 27 -51 31 -87 15z"/>
<path d="M3985 1853 c-114 -45 -123 -50 -130 -82 -8 -38 14 -77 50 -91 31 -12
169 34 202 66 30 30 30 74 0 102 -27 26 -64 27 -122 5z"/>
<path d="M3546 1734 c-43 -8 -78 -22 -92 -35 -40 -37 -27 -101 23 -120 35 -13
190 18 215 43 26 26 23 79 -5 106 -26 25 -44 26 -141 6z"/>
<path d="M3080 1659 c-74 -14 -105 -79 -60 -127 24 -25 67 -28 165 -12 68 11
98 35 98 79 0 52 -27 71 -97 70 -34 -1 -81 -5 -106 -10z"/>
</g>
</svg>
